<svg xmlns="http://w3.org">
  <symbol id="floppy" viewBox="0 0 39 39" fill="none">
    <rect width="3" height="3"/>
    <rect y="3" width="3" height="3"/>
    <rect y="6" width="3" height="3"/>
    <rect y="9" width="3" height="3"/>
    <rect y="12" width="3" height="3"/>
    <rect y="15" width="3" height="3"/>
    <rect y="18" width="3" height="3"/>
    <rect y="21" width="3" height="3"/>
    <rect y="24" width="3" height="3"/>
    <rect y="27" width="3" height="3"/>
    <rect y="30" width="3" height="3"/>
    <rect y="33" width="3" height="3"/>
    <rect y="36" width="3" height="3"/>
    <rect x="33" width="3" height="3" transform="rotate(90 33 0)"/>
    <rect x="30" width="3" height="3" transform="rotate(90 30 0)"/>
    <rect x="27" width="3" height="3" transform="rotate(90 27 0)"/>
    <rect x="24" width="3" height="3" transform="rotate(90 24 0)"/>
    <rect x="21" width="3" height="3" transform="rotate(90 21 0)"/>
    <rect x="18" width="3" height="3" transform="rotate(90 18 0)"/>
    <rect x="15" width="3" height="3" transform="rotate(90 15 0)"/>
    <rect x="12" width="3" height="3" transform="rotate(90 12 0)"/>
    <rect x="9" width="3" height="3" transform="rotate(90 9 0)"/>
    <rect x="6" width="3" height="3" transform="rotate(90 6 0)"/>
    <rect x="36" y="3" width="3" height="3" transform="rotate(90 36 3)"/>
    <rect x="9" y="6" width="3" height="3" transform="rotate(90 9 6)"/>
    <rect x="9" y="3" width="3" height="3" transform="rotate(90 9 3)"/>
    <rect x="9" y="9" width="3" height="3" transform="rotate(90 9 9)"/>
    <rect x="30" y="6" width="3" height="3" transform="rotate(90 30 6)"/>
    <rect x="30" y="3" width="3" height="3" transform="rotate(90 30 3)"/>
    <rect x="30" y="9" width="3" height="3" transform="rotate(90 30 9)"/>
    <rect x="24" y="6" width="3" height="3" transform="rotate(90 24 6)"/>
    <rect x="24" y="3" width="3" height="3" transform="rotate(90 24 3)"/>
    <rect x="24" y="9" width="3" height="3" transform="rotate(90 24 9)"/>
    <rect x="30" y="12" width="3" height="3" transform="rotate(90 30 12)"/>
    <rect x="27" y="12" width="3" height="3" transform="rotate(90 27 12)"/>
    <rect x="24" y="12" width="3" height="3" transform="rotate(90 24 12)"/>
    <rect x="21" y="12" width="3" height="3" transform="rotate(90 21 12)"/>
    <rect x="18" y="12" width="3" height="3" transform="rotate(90 18 12)"/>
    <rect x="15" y="12" width="3" height="3" transform="rotate(90 15 12)"/>
    <rect x="12" y="12" width="3" height="3" transform="rotate(90 12 12)"/>
    <rect x="9" y="12" width="3" height="3" transform="rotate(90 9 12)"/>
    <rect x="33" y="21" width="3" height="3" transform="rotate(90 33 21)"/>
    <rect x="30" y="21" width="3" height="3" transform="rotate(90 30 21)"/>
    <rect x="27" y="21" width="3" height="3" transform="rotate(90 27 21)"/>
    <rect x="24" y="21" width="3" height="3" transform="rotate(90 24 21)"/>
    <rect x="21" y="21" width="3" height="3" transform="rotate(90 21 21)"/>
    <rect x="18" y="21" width="3" height="3" transform="rotate(90 18 21)"/>
    <rect x="15" y="21" width="3" height="3" transform="rotate(90 15 21)"/>
    <rect x="12" y="21" width="3" height="3" transform="rotate(90 12 21)"/>
    <rect x="9" y="21" width="3" height="3" transform="rotate(90 9 21)"/>
    <rect x="33" y="24" width="3" height="3" transform="rotate(90 33 24)"/>
    <rect x="9" y="24" width="3" height="3" transform="rotate(90 9 24)"/>
    <rect x="33" y="27" width="3" height="3" transform="rotate(90 33 27)"/>
    <rect x="9" y="27" width="3" height="3" transform="rotate(90 9 27)"/>
    <rect x="33" y="30" width="3" height="3" transform="rotate(90 33 30)"/>
    <rect x="9" y="30" width="3" height="3" transform="rotate(90 9 30)"/>
    <rect x="9" y="33" width="3" height="3" transform="rotate(90 9 33)"/>
    <rect x="33" y="33" width="3" height="3" transform="rotate(90 33 33)"/>
    <rect x="36" y="36" width="3" height="3" transform="rotate(90 36 36)"/>
    <rect x="33" y="36" width="3" height="3" transform="rotate(90 33 36)"/>
    <rect x="30" y="36" width="3" height="3" transform="rotate(90 30 36)"/>
    <rect x="27" y="36" width="3" height="3" transform="rotate(90 27 36)"/>
    <rect x="24" y="36" width="3" height="3" transform="rotate(90 24 36)"/>
    <rect x="21" y="36" width="3" height="3" transform="rotate(90 21 36)"/>
    <rect x="18" y="36" width="3" height="3" transform="rotate(90 18 36)"/>
    <rect x="15" y="36" width="3" height="3" transform="rotate(90 15 36)"/>
    <rect x="12" y="36" width="3" height="3" transform="rotate(90 12 36)"/>
    <rect x="9" y="36" width="3" height="3" transform="rotate(90 9 36)"/>
    <rect x="6" y="36" width="3" height="3" transform="rotate(90 6 36)"/>
    <rect x="39" y="39" width="3" height="3" transform="rotate(-180 39 39)"/>
    <rect x="39" y="36" width="3" height="3" transform="rotate(-180 39 36)"/>
    <rect x="39" y="33" width="3" height="3" transform="rotate(-180 39 33)"/>
    <rect x="39" y="30" width="3" height="3" transform="rotate(-180 39 30)"/>
    <rect x="39" y="27" width="3" height="3" transform="rotate(-180 39 27)"/>
    <rect x="39" y="24" width="3" height="3" transform="rotate(-180 39 24)"/>
    <rect x="39" y="21" width="3" height="3" transform="rotate(-180 39 21)"/>
    <rect x="39" y="18" width="3" height="3" transform="rotate(-180 39 18)"/>
    <rect x="39" y="15" width="3" height="3" transform="rotate(-180 39 15)"/>
    <rect x="39" y="12" width="3" height="3" transform="rotate(-180 39 12)"/>
    <rect x="39" y="9" width="3" height="3" transform="rotate(-180 39 9)"/>
  </symbol>
</svg>

